<?xml version="1.0" encoding="UTF-8"?>
<svg
        width="154px"
        height="111px"
        viewBox="0 0 154 111"
        version="1.1"
        xmlns="http://www.w3.org/2000/svg"
>
    <!-- Generator: Sketch 64 (93537) - https://sketch.com -->
    <title>v1</title>
    <desc>Created with Sketch.</desc>
    <g
            id="Page-1"
            stroke="none"
            stroke-width="1"
            fill="none"
            fill-rule="evenodd"
    >
        <g
                id="6"
                transform="translate(-226.000000, -224.000000)"
                fill="#000000"
        >
            <g id="v1" transform="translate(226.921767, 224.625000)">
                <path
                        d="M22.8964244,109.81468 C23.5144777,109.81468 24.035511,109.72305 24.4595244,109.53979 C24.8835377,109.35653 25.1979544,109.10859 25.4027744,108.79597 C25.6075944,108.48335 25.7100044,108.136593 25.7100044,107.7557 C25.7100044,107.295753 25.5914244,106.93103 25.3542644,106.66153 C25.1171044,106.39203 24.827841,106.190803 24.4864744,106.05785 C24.1451077,105.924897 23.6977377,105.790147 23.1443644,105.6536 C22.677231,105.538613 22.305321,105.43261 22.0286344,105.33559 C21.7519477,105.23857 21.5219744,105.09843 21.3387144,104.91517 C21.1554544,104.73191 21.0638244,104.48936 21.0638244,104.18752 C21.0638244,103.785067 21.2309144,103.456277 21.5650944,103.20115 C21.8992744,102.946023 22.396951,102.81846 23.0581244,102.81846 C23.4030844,102.81846 23.755231,102.870563 24.1145644,102.97477 C24.4738977,103.078977 24.811671,103.235287 25.1278844,103.4437 L25.1278844,103.4437 L25.3973844,102.80768 C25.0955444,102.599267 24.7380077,102.43577 24.3247744,102.31719 C23.911541,102.19861 23.4893244,102.13932 23.0581244,102.13932 C22.440071,102.13932 21.922631,102.232747 21.5058044,102.4196 C21.0889777,102.606453 20.779951,102.85619 20.5787244,103.16881 C20.3774977,103.48143 20.2768844,103.828187 20.2768844,104.20908 C20.2768844,104.676213 20.397261,105.046327 20.6380144,105.31942 C20.8787677,105.592513 21.168031,105.795537 21.5058044,105.92849 C21.8435777,106.061443 22.2963377,106.199787 22.8640844,106.34352 C23.3384044,106.458507 23.7085177,106.56451 23.9744244,106.66153 C24.240331,106.75855 24.4649144,106.896893 24.6481744,107.07656 C24.8314344,107.256227 24.9230644,107.49698 24.9230644,107.79882 C24.9230644,108.194087 24.7541777,108.51569 24.4164044,108.76363 C24.078631,109.01157 23.571971,109.13554 22.8964244,109.13554 C22.4149177,109.13554 21.9477844,109.051097 21.4950244,108.88221 C21.0422644,108.713323 20.6793377,108.492333 20.4062444,108.21924 L20.4062444,108.21924 L20.0936244,108.8337 C20.3739044,109.128353 20.7709677,109.365513 21.2848144,109.54518 C21.798661,109.724847 22.3358644,109.81468 22.8964244,109.81468 Z M37.3296941,109.81468 C38.0771075,109.81468 38.7508575,109.649387 39.3509441,109.3188 C39.9510308,108.988213 40.4235541,108.530063 40.7685141,107.94435 C41.1134741,107.358637 41.2859541,106.702853 41.2859541,105.977 C41.2859541,105.251147 41.1134741,104.595363 40.7685141,104.00965 C40.4235541,103.423937 39.9510308,102.965787 39.3509441,102.6352 C38.7508575,102.304613 38.0771075,102.13932 37.3296941,102.13932 C36.5822808,102.13932 35.9049375,102.30641 35.2976641,102.64059 C34.6903908,102.97477 34.2160708,103.43292 33.8747041,104.01504 C33.5333375,104.59716 33.3626541,105.251147 33.3626541,105.977 C33.3626541,106.702853 33.5333375,107.35684 33.8747041,107.93896 C34.2160708,108.52108 34.6903908,108.97923 35.2976641,109.31341 C35.9049375,109.64759 36.5822808,109.81468 37.3296941,109.81468 Z M37.3296941,109.1032 C36.7332008,109.1032 36.1924041,108.96845 35.7073041,108.69895 C35.2222041,108.42945 34.8413108,108.055743 34.5646241,107.57783 C34.2879375,107.099917 34.1495941,106.566307 34.1495941,105.977 C34.1495941,105.387693 34.2879375,104.854083 34.5646241,104.37617 C34.8413108,103.898257 35.2222041,103.52455 35.7073041,103.25505 C36.1924041,102.98555 36.7332008,102.8508 37.3296941,102.8508 C37.9261875,102.8508 38.4651875,102.98555 38.9466941,103.25505 C39.4282008,103.52455 39.8055008,103.898257 40.0785941,104.37617 C40.3516875,104.854083 40.4882341,105.387693 40.4882341,105.977 C40.4882341,106.566307 40.3516875,107.099917 40.0785941,107.57783 C39.8055008,108.055743 39.4282008,108.42945 38.9466941,108.69895 C38.4651875,108.96845 37.9261875,109.1032 37.3296941,109.1032 Z M50.4585839,109.75 L50.4585839,106.54834 L54.3609439,106.54834 L54.3609439,105.85842 L50.4585839,105.85842 L50.4585839,102.89392 L54.8352639,102.89392 L54.8352639,102.204 L49.6608639,102.204 L49.6608639,109.75 L50.4585839,109.75 Z M65.3877337,109.75 L65.3877337,102.89392 L68.0396137,102.89392 L68.0396137,102.204 L61.9381337,102.204 L61.9381337,102.89392 L64.5900137,102.89392 L64.5900137,109.75 L65.3877337,109.75 Z M78.3872634,109.75 L80.6079434,103.31434 L82.8178434,109.75 L83.6586834,109.75 L86.2027634,102.204 L85.4373834,102.204 L83.2274834,108.7259 L81.0068034,102.204 L80.2629834,102.204 L78.0099634,108.69356 L75.8324034,102.204 L75.0131234,102.204 L77.5572034,109.75 L78.3872634,109.75 Z M93.6398132,109.75 L94.5453332,107.73414 L98.7495332,107.73414 L99.6550532,109.75 L100.495893,109.75 L97.0462932,102.204 L96.2593532,102.204 L92.8097532,109.75 L93.6398132,109.75 Z M98.4584732,107.08734 L94.8363932,107.08734 L96.6474332,103.03406 L98.4584732,107.08734 Z M109.129523,109.75 L109.129523,107.35684 L111.156163,107.35684 C111.364576,107.35684 111.565803,107.34606 111.759843,107.3245 L111.759843,107.3245 L113.484643,109.75 L114.357823,109.75 L112.514443,107.1628 C113.067816,106.983133 113.493626,106.690277 113.791873,106.28423 C114.09012,105.878183 114.239243,105.380507 114.239243,104.7912 C114.239243,103.986293 113.96615,103.353867 113.419963,102.89392 C112.873776,102.433973 112.119176,102.204 111.156163,102.204 L111.156163,102.204 L108.331803,102.204 L108.331803,109.75 L109.129523,109.75 Z M111.134603,106.6777 L109.129523,106.6777 L109.129523,102.89392 L111.134603,102.89392 C111.882016,102.89392 112.453356,103.057417 112.848623,103.38441 C113.24389,103.711403 113.441523,104.180333 113.441523,104.7912 C113.441523,105.387693 113.24389,105.851233 112.848623,106.18182 C112.453356,106.512407 111.882016,106.6777 111.134603,106.6777 L111.134603,106.6777 Z M128.047273,109.75 L128.047273,109.06008 L123.508893,109.06008 L123.508893,106.25728 L127.411253,106.25728 L127.411253,105.57814 L123.508893,105.57814 L123.508893,102.89392 L127.885573,102.89392 L127.885573,102.204 L122.711173,102.204 L122.711173,109.75 L128.047273,109.75 Z"
                        id="SOFTWARE"
                        fill-rule="nonzero"
                ></path>
                <path
                        d="M4.830224,93.84 L6.145384,90.587968 L13.223336,90.587968 L14.538496,93.84 L19.464368,93.84 L12.051648,77.1016 L7.388808,77.1016 L-3.41060513e-13,93.84 L4.830224,93.84 Z M11.83644,87.096816 L7.53228,87.096816 L9.68436,81.740528 L11.83644,87.096816 Z M36.2883864,93.84 L36.2883864,90.085816 L28.3017784,90.085816 L28.3017784,77.1016 L23.5672024,77.1016 L23.5672024,93.84 L36.2883864,93.84 Z M47.6604687,93.84 L47.6604687,80.855784 L52.7776367,80.855784 L52.7776367,77.1016 L37.7848127,77.1016 L37.7848127,80.855784 L42.9258927,80.855784 L42.9258927,93.84 L47.6604687,93.84 Z M59.2955831,93.84 L60.6107431,90.587968 L67.6886951,90.587968 L69.0038551,93.84 L73.9297271,93.84 L66.5170071,77.1016 L61.8541671,77.1016 L54.4653591,93.84 L59.2955831,93.84 Z M66.3017991,87.096816 L61.9976391,87.096816 L64.1497191,81.740528 L66.3017991,87.096816 Z M82.4084574,93.84 L82.4084574,85.207768 L86.6887054,92.190072 L88.7929614,92.190072 L93.0971214,84.968648 L93.1449454,93.84 L97.4969294,93.84 L97.4491054,77.1016 L93.5514494,77.1016 L87.8125694,86.762048 L81.9302174,77.1016 L78.0325614,77.1016 L78.0325614,93.84 L82.4084574,93.84 Z M108.342948,93.84 L108.342948,77.1016 L103.608372,77.1016 L103.608372,93.84 L108.342948,93.84 Z M119.212878,93.84 L119.212878,89.392368 L121.795374,89.392368 L124.832198,93.84 L129.901542,93.84 L126.29083,88.57936 C127.342958,88.0692373 128.151981,87.3638333 128.717898,86.463148 C129.283815,85.5624627 129.566774,84.5063493 129.566774,83.294808 C129.566774,82.0354427 129.263889,80.939476 128.658118,80.006908 C128.052347,79.07434 127.191515,78.35698 126.075622,77.854828 C124.959729,77.352676 123.644569,77.1016 122.130142,77.1016 L122.130142,77.1016 L114.478302,77.1016 L114.478302,93.84 L119.212878,93.84 Z M121.843198,85.733832 L119.212878,85.733832 L119.212878,80.831872 L121.843198,80.831872 C122.815619,80.831872 123.548921,81.04708 124.043102,81.477496 C124.537283,81.907912 124.784374,82.5136827 124.784374,83.294808 C124.784374,84.0759333 124.537283,84.6777187 124.043102,85.100164 C123.548921,85.5226093 122.815619,85.733832 121.843198,85.733832 L121.843198,85.733832 Z M137.75856,93.84 L139.07372,90.587968 L146.151672,90.587968 L147.466832,93.84 L152.392704,93.84 L144.979984,77.1016 L140.317144,77.1016 L132.928336,93.84 L137.75856,93.84 Z M144.764776,87.096816 L140.460616,87.096816 L142.612696,81.740528 L144.764776,87.096816 Z"
                        id="ALTAMIRA"
                        fill-rule="nonzero"
                ></path>
                <path
                        d="M39.6027906,30.1092396 C40.6425947,30.1092396 41.4855225,30.9521674 41.4855225,31.9919715 L41.4855225,61.9572681 C41.4855225,62.9970722 40.6425947,63.84 39.6027906,63.84 C38.5629865,63.84 37.7200588,62.9970722 37.7200588,61.9572681 L37.7200588,31.9919715 C37.7200588,30.9521674 38.5629865,30.1092396 39.6027906,30.1092396 Z M52.5098432,19.7960856 C53.5496473,19.7960856 54.3925751,20.6390134 54.3925751,21.6788175 L54.3925751,60.4915267 C54.3925751,61.5313308 53.5496473,62.3742586 52.5098432,62.3742586 C51.4700391,62.3742586 50.6271114,61.5313308 50.6271114,60.4915267 L50.6271114,21.6788175 C50.6271114,20.6390134 51.4700391,19.7960856 52.5098432,19.7960856 Z M91.231001,5.68434189e-14 C92.2708051,5.66524099e-14 93.1137329,0.84292777 93.1137329,1.88273187 L93.1137329,60.4915267 C93.1137329,61.5313308 92.2708051,62.3742586 91.231001,62.3742586 C90.1911969,62.3742586 89.3482692,61.5313308 89.3482692,60.4915267 L89.3482692,1.88273187 C89.3482692,0.84292777 90.1911969,5.61462494e-14 91.231001,5.68434189e-14 Z M104.138054,6.95104569 C105.177858,6.95104569 106.020785,7.79397346 106.020785,8.83377756 L106.020785,60.4915267 C106.020785,61.5313308 105.177858,62.3742586 104.138054,62.3742586 C103.09825,62.3742586 102.255322,61.5313308 102.255322,60.4915267 L102.255322,8.83377756 C102.255322,7.79397346 103.09825,6.95104569 104.138054,6.95104569 Z M46.0563169,25.8786817 C47.096121,25.8786817 47.9390488,26.7216095 47.9390488,27.7614136 L47.9390488,54.9618938 C47.9390488,56.0016979 47.096121,56.8446257 46.0563169,56.8446257 C45.0165128,56.8446257 44.1735851,56.0016979 44.1735851,54.9618938 L44.1735851,27.7614136 C44.1735851,26.7216095 45.0165128,25.8786817 46.0563169,25.8786817 Z M97.6845273,2.99417975 C98.7243314,2.99417975 99.5672592,3.83710752 99.5672592,4.87691162 L99.5672592,54.0838448 C99.5672592,55.1236489 98.7243314,55.9665766 97.6845273,55.9665766 C96.6447232,55.9665766 95.8017955,55.1236489 95.8017955,54.0838448 L95.8017955,4.87691162 C95.8017955,3.83710752 96.6447232,2.99417975 97.6845273,2.99417975 Z M71.8704221,5.07572481 C72.9102262,5.07572481 73.753154,5.91865258 73.753154,6.95845668 L73.753154,45.0918879 C73.753154,46.131692 72.9102262,46.9746198 71.8704221,46.9746198 C70.830618,46.9746198 69.9876903,46.131692 69.9876903,45.0918879 L69.9876903,6.95845668 C69.9876903,5.91865258 70.830618,5.07572481 71.8704221,5.07572481 Z M78.3239484,1.97913042 C79.3637525,1.97913042 80.2066803,2.82205819 80.2066803,3.86186229 L80.2066803,45.0918879 C80.2066803,46.131692 79.3637525,46.9746198 78.3239484,46.9746198 C77.2841443,46.9746198 76.4412166,46.131692 76.4412166,45.0918879 L76.4412166,3.86186229 C76.4412166,2.82205819 77.2841443,1.97913042 78.3239484,1.97913042 Z M84.7774747,0.983796505 C85.8172788,0.983796505 86.6602066,1.82672428 86.6602066,2.86652838 L86.6602066,43.3381274 C86.6602066,44.3779315 85.8172788,45.2208593 84.7774747,45.2208593 C83.7376706,45.2208593 82.8947429,44.3779315 82.8947429,43.3381274 L82.8947429,2.86652838 C82.8947429,1.82672428 83.7376706,0.983796505 84.7774747,0.983796505 Z M65.4168958,11.3379746 C66.4566999,11.3379746 67.2996277,12.1809024 67.2996277,13.2207065 L67.2996277,43.0787146 C67.2996277,44.1185187 66.4566999,44.9614465 65.4168958,44.9614465 C64.3770917,44.9614465 63.534164,44.1185187 63.534164,43.0787146 L63.534164,13.2207065 C63.534164,12.1809024 64.3770917,11.3379746 65.4168958,11.3379746 Z M58.9633695,16.4783059 C60.0031736,16.4783059 60.8461014,17.3212337 60.8461014,18.3610378 L60.8461014,40.8060337 C60.8461014,41.8458378 60.0031736,42.6887656 58.9633695,42.6887656 C57.9235654,42.6887656 57.0806377,41.8458378 57.0806377,40.8060337 L57.0806377,18.3610378 C57.0806377,17.3212337 57.9235654,16.4783059 58.9633695,16.4783059 Z M35.1746667,34.7930723 C36.0050911,35.418842 36.1709966,36.5993207 35.5452269,37.4297452 L32.8615584,40.9910935 C32.2357887,41.821518 31.05531,41.9874234 30.2248855,41.3616537 C29.3944611,40.735884 29.2285556,39.5554053 29.8543253,38.7249809 L32.5379938,35.1636325 C33.1637635,34.333208 34.3442422,34.1673026 35.1746667,34.7930723 Z M110.59158,4.5785491 C111.631384,4.5785491 112.474312,5.42147687 112.474312,6.46128097 L112.474312,37.2721088 C112.474312,38.2623985 111.709751,39.0741154 110.738714,39.1491763 L110.59158,39.1548407 L110.59158,39.1548407 C109.551776,39.1548407 108.708848,38.3119129 108.708848,37.2721088 L108.708848,6.46128097 C108.708848,5.42147687 109.551776,4.5785491 110.59158,4.5785491 Z M117.045106,5.07572481 C118.08491,5.07572481 118.927838,5.91865258 118.927838,6.95845668 L118.927838,35.4055362 C118.927838,36.4453403 118.08491,37.2882681 117.045106,37.2882681 C116.005302,37.2882681 115.162374,36.4453403 115.162374,35.4055362 L115.162374,6.95845668 C115.162374,5.91865258 116.005302,5.07572481 117.045106,5.07572481 Z M123.498633,7.66822404 C124.538437,7.66822404 125.381364,8.51115181 125.381364,9.55095591 L125.381364,27.4772554 C125.381364,28.5170595 124.538437,29.3599873 123.498633,29.3599873 C122.458828,29.3599873 121.615901,28.5170595 121.615901,27.4772554 L121.615901,9.55095591 C121.615901,8.51115181 122.458828,7.66822404 123.498633,7.66822404 Z"
                        id="Combined-Shape-Copy-3"
                ></path>
            </g>
        </g>
    </g>
</svg>
