<?xml version="1.0" encoding="UTF-8"?>
<svg width="214px" height="36px" viewBox="0 0 214 36" version="1.1" xmlns="http://www.w3.org/2000/svg" xmlns:xlink="http://www.w3.org/1999/xlink">
    <!-- Generator: Sketch 64 (93537) - https://sketch.com -->
    <title>v2-white</title>
    <desc>Created with Sketch.</desc>
    <g id="Page-1" stroke="none" stroke-width="1" fill="none" fill-rule="evenodd">
        <g id="6" transform="translate(-198.000000, -560.000000)" fill="#FFFFFF">
            <g id="v2-white" transform="translate(198.000000, 556.760000)">
                <path d="M64.4631909,38.97468 C65.0812443,38.97468 65.6022776,38.88305 66.0262909,38.69979 C66.4503043,38.51653 66.7647209,38.26859 66.9695409,37.95597 C67.1743609,37.64335 67.2767709,37.2965933 67.2767709,36.9157 C67.2767709,36.4557533 67.1581909,36.09103 66.9210309,35.82153 C66.6838709,35.55203 66.3946076,35.3508033 66.0532409,35.21785 C65.7118743,35.0848967 65.2645043,34.9501467 64.7111309,34.8136 C64.2439976,34.6986133 63.8720876,34.59261 63.5954009,34.49559 C63.3187143,34.39857 63.0887409,34.25843 62.9054809,34.07517 C62.7222209,33.89191 62.6305909,33.64936 62.6305909,33.34752 C62.6305909,32.9450667 62.7976809,32.6162767 63.1318609,32.36115 C63.4660409,32.1060233 63.9637176,31.97846 64.6248909,31.97846 C64.9698509,31.97846 65.3219976,32.0305633 65.6813309,32.13477 C66.0406643,32.2389767 66.3784376,32.3952867 66.6946509,32.6037 L66.6946509,32.6037 L66.9641509,31.96768 C66.6623109,31.7592667 66.3047743,31.59577 65.8915409,31.47719 C65.4783076,31.35861 65.0560909,31.29932 64.6248909,31.29932 C64.0068376,31.29932 63.4893976,31.3927467 63.0725709,31.5796 C62.6557443,31.7664533 62.3467176,32.01619 62.1454909,32.32881 C61.9442643,32.64143 61.8436509,32.9881867 61.8436509,33.36908 C61.8436509,33.8362133 61.9640276,34.2063267 62.2047809,34.47942 C62.4455343,34.7525133 62.7347976,34.9555367 63.0725709,35.08849 C63.4103443,35.2214433 63.8631043,35.3597867 64.4308509,35.50352 C64.9051709,35.6185067 65.2752843,35.72451 65.5411909,35.82153 C65.8070976,35.91855 66.0316809,36.0568933 66.2149409,36.23656 C66.3982009,36.4162267 66.4898309,36.65698 66.4898309,36.95882 C66.4898309,37.3540867 66.3209443,37.67569 65.9831709,37.92363 C65.6453976,38.17157 65.1387376,38.29554 64.4631909,38.29554 C63.9816843,38.29554 63.5145509,38.2110967 63.0617909,38.04221 C62.6090309,37.8733233 62.2461043,37.6523333 61.9730109,37.37924 L61.9730109,37.37924 L61.6603909,37.9937 C61.9406709,38.2883533 62.3377343,38.5255133 62.8515809,38.70518 C63.3654276,38.8848467 63.9026309,38.97468 64.4631909,38.97468 Z M78.8964607,38.97468 C79.643874,38.97468 80.317624,38.8093867 80.9177107,38.4788 C81.5177974,38.1482133 81.9903207,37.6900633 82.3352807,37.10435 C82.6802407,36.5186367 82.8527207,35.8628533 82.8527207,35.137 C82.8527207,34.4111467 82.6802407,33.7553633 82.3352807,33.16965 C81.9903207,32.5839367 81.5177974,32.1257867 80.9177107,31.7952 C80.317624,31.4646133 79.643874,31.29932 78.8964607,31.29932 C78.1490474,31.29932 77.471704,31.46641 76.8644307,31.80059 C76.2571574,32.13477 75.7828374,32.59292 75.4414707,33.17504 C75.100104,33.75716 74.9294207,34.4111467 74.9294207,35.137 C74.9294207,35.8628533 75.100104,36.51684 75.4414707,37.09896 C75.7828374,37.68108 76.2571574,38.13923 76.8644307,38.47341 C77.471704,38.80759 78.1490474,38.97468 78.8964607,38.97468 Z M78.8964607,38.2632 C78.2999674,38.2632 77.7591707,38.12845 77.2740707,37.85895 C76.7889707,37.58945 76.4080774,37.2157433 76.1313907,36.73783 C75.854704,36.2599167 75.7163607,35.7263067 75.7163607,35.137 C75.7163607,34.5476933 75.854704,34.0140833 76.1313907,33.53617 C76.4080774,33.0582567 76.7889707,32.68455 77.2740707,32.41505 C77.7591707,32.14555 78.2999674,32.0108 78.8964607,32.0108 C79.492954,32.0108 80.031954,32.14555 80.5134607,32.41505 C80.9949674,32.68455 81.3722674,33.0582567 81.6453607,33.53617 C81.918454,34.0140833 82.0550007,34.5476933 82.0550007,35.137 C82.0550007,35.7263067 81.918454,36.2599167 81.6453607,36.73783 C81.3722674,37.2157433 80.9949674,37.58945 80.5134607,37.85895 C80.031954,38.12845 79.492954,38.2632 78.8964607,38.2632 Z M92.0253505,38.91 L92.0253505,35.70834 L95.9277105,35.70834 L95.9277105,35.01842 L92.0253505,35.01842 L92.0253505,32.05392 L96.4020305,32.05392 L96.4020305,31.364 L91.2276305,31.364 L91.2276305,38.91 L92.0253505,38.91 Z M106.9545,38.91 L106.9545,32.05392 L109.60638,32.05392 L109.60638,31.364 L103.5049,31.364 L103.5049,32.05392 L106.15678,32.05392 L106.15678,38.91 L106.9545,38.91 Z M119.95403,38.91 L122.17471,32.47434 L124.38461,38.91 L125.22545,38.91 L127.76953,31.364 L127.00415,31.364 L124.79425,37.8859 L122.57357,31.364 L121.82975,31.364 L119.57673,37.85356 L117.39917,31.364 L116.57989,31.364 L119.12397,38.91 L119.95403,38.91 Z M135.20658,38.91 L136.1121,36.89414 L140.3163,36.89414 L141.22182,38.91 L142.06266,38.91 L138.61306,31.364 L137.82612,31.364 L134.37652,38.91 L135.20658,38.91 Z M140.02524,36.24734 L136.40316,36.24734 L138.2142,32.19406 L140.02524,36.24734 Z M150.69629,38.91 L150.69629,36.51684 L152.72293,36.51684 C152.931343,36.51684 153.13257,36.50606 153.32661,36.4845 L153.32661,36.4845 L155.05141,38.91 L155.92459,38.91 L154.08121,36.3228 C154.634583,36.1431333 155.060393,35.8502767 155.35864,35.44423 C155.656886,35.0381833 155.80601,34.5405067 155.80601,33.9512 C155.80601,33.1462933 155.532916,32.5138667 154.98673,32.05392 C154.440543,31.5939733 153.685943,31.364 152.72293,31.364 L152.72293,31.364 L149.89857,31.364 L149.89857,38.91 L150.69629,38.91 Z M152.70137,35.8377 L150.69629,35.8377 L150.69629,32.05392 L152.70137,32.05392 C153.448783,32.05392 154.020123,32.2174167 154.41539,32.54441 C154.810656,32.8714033 155.00829,33.3403333 155.00829,33.9512 C155.00829,34.5476933 154.810656,35.0112333 154.41539,35.34182 C154.020123,35.6724067 153.448783,35.8377 152.70137,35.8377 L152.70137,35.8377 Z M169.614039,38.91 L169.614039,38.22008 L165.075659,38.22008 L165.075659,35.41728 L168.978019,35.41728 L168.978019,34.73814 L165.075659,34.73814 L165.075659,32.05392 L169.452339,32.05392 L169.452339,31.364 L164.277939,31.364 L164.277939,38.91 L169.614039,38.91 Z" id="SOFTWARE" fill-rule="nonzero"></path>
                <path d="M65.7519906,23 L67.0671506,19.747968 L74.1451026,19.747968 L75.4602626,23 L80.3861346,23 L72.9734146,6.2616 L68.3105746,6.2616 L60.9217666,23 L65.7519906,23 Z M72.7582066,16.256816 L68.4540466,16.256816 L70.6061266,10.900528 L72.7582066,16.256816 Z M97.2101529,23 L97.2101529,19.245816 L89.2235449,19.245816 L89.2235449,6.2616 L84.4889689,6.2616 L84.4889689,23 L97.2101529,23 Z M108.582235,23 L108.582235,10.015784 L113.699403,10.015784 L113.699403,6.2616 L98.7065793,6.2616 L98.7065793,10.015784 L103.847659,10.015784 L103.847659,23 L108.582235,23 Z M120.21735,23 L121.53251,19.747968 L128.610462,19.747968 L129.925622,23 L134.851494,23 L127.438774,6.2616 L122.775934,6.2616 L115.387126,23 L120.21735,23 Z M127.223566,16.256816 L122.919406,16.256816 L125.071486,10.900528 L127.223566,16.256816 Z M143.330224,23 L143.330224,14.367768 L147.610472,21.350072 L149.714728,21.350072 L154.018888,14.128648 L154.066712,23 L158.418696,23 L158.370872,6.2616 L154.473216,6.2616 L148.734336,15.922048 L142.851984,6.2616 L138.954328,6.2616 L138.954328,23 L143.330224,23 Z M169.264714,23 L169.264714,6.2616 L164.530138,6.2616 L164.530138,23 L169.264714,23 Z M180.134645,23 L180.134645,18.552368 L182.717141,18.552368 L185.753965,23 L190.823309,23 L187.212597,17.73936 C188.264725,17.2292373 189.073747,16.5238333 189.639665,15.623148 C190.205582,14.7224627 190.488541,13.6663493 190.488541,12.454808 C190.488541,11.1954427 190.185655,10.099476 189.579885,9.166908 C188.974114,8.23434 188.113282,7.51698 186.997389,7.014828 C185.881495,6.512676 184.566335,6.2616 183.051909,6.2616 L183.051909,6.2616 L175.400069,6.2616 L175.400069,23 L180.134645,23 Z M182.764965,14.893832 L180.134645,14.893832 L180.134645,9.991872 L182.764965,9.991872 C183.737386,9.991872 184.470687,10.20708 184.964869,10.637496 C185.45905,11.067912 185.706141,11.6736827 185.706141,12.454808 C185.706141,13.2359333 185.45905,13.8377187 184.964869,14.260164 C184.470687,14.6826093 183.737386,14.893832 182.764965,14.893832 L182.764965,14.893832 Z M198.680327,23 L199.995487,19.747968 L207.073439,19.747968 L208.388599,23 L213.314471,23 L205.901751,6.2616 L201.238911,6.2616 L193.850103,23 L198.680327,23 Z M205.686543,16.256816 L201.382383,16.256816 L203.534463,10.900528 L205.686543,16.256816 Z" id="ALTAMIRA" fill-rule="nonzero"></path>
                <path d="M5.63178149,19.9480765 C6.20999336,19.9480765 6.67872669,20.4168099 6.67872669,20.9950217 L6.67872669,37.6580548 C6.67872669,38.2362667 6.20999336,38.705 5.63178149,38.705 C5.05356963,38.705 4.5848363,38.2362667 4.5848363,37.6580548 L4.5848363,20.9950217 C4.5848363,20.4168099 5.05356963,19.9480765 5.63178149,19.9480765 Z M12.8091055,14.2131616 C13.3873174,14.2131616 13.8560507,14.681895 13.8560507,15.2601068 L13.8560507,36.8429887 C13.8560507,37.4212005 13.3873174,37.8899339 12.8091055,37.8899339 C12.2308937,37.8899339 11.7621603,37.4212005 11.7621603,36.8429887 L11.7621603,15.2601068 C11.7621603,14.681895 12.2308937,14.2131616 12.8091055,14.2131616 Z M34.3410777,3.205 C34.9192895,3.205 35.3880229,3.67373333 35.3880229,4.2519452 L35.3880229,36.8429887 C35.3880229,37.4212005 34.9192895,37.8899339 34.3410777,37.8899339 C33.7628658,37.8899339 33.2941325,37.4212005 33.2941325,36.8429887 L33.2941325,4.2519452 C33.2941325,3.67373333 33.7628658,3.205 34.3410777,3.205 Z M41.5184017,7.07032146 C42.0966136,7.07032146 42.5653469,7.53905479 42.5653469,8.11726666 L42.5653469,36.8429887 C42.5653469,37.4212005 42.0966136,37.8899339 41.5184017,37.8899339 C40.9401899,37.8899339 40.4714565,37.4212005 40.4714565,36.8429887 L40.4714565,8.11726666 C40.4714565,7.53905479 40.9401899,7.07032146 41.5184017,7.07032146 Z M9.22044352,17.5955577 C9.79865538,17.5955577 10.2673887,18.064291 10.2673887,18.6425029 L10.2673887,33.7680832 C10.2673887,34.3462951 9.79865538,34.8150284 9.22044352,34.8150284 C8.64223165,34.8150284 8.17349832,34.3462951 8.17349832,33.7680832 L8.17349832,18.6425029 C8.17349832,18.064291 8.64223165,17.5955577 9.22044352,17.5955577 Z M37.9297397,4.86999657 C38.5079516,4.86999657 38.9766849,5.3387299 38.9766849,5.91694177 L38.9766849,33.2798197 C38.9766849,33.8580316 38.5079516,34.3267649 37.9297397,34.3267649 C37.3515278,34.3267649 36.8827945,33.8580316 36.8827945,33.2798197 L36.8827945,5.91694177 C36.8827945,5.3387299 37.3515278,4.86999657 37.9297397,4.86999657 Z M23.5750916,6.02749735 C24.1533035,6.02749735 24.6220368,6.49623068 24.6220368,7.07444255 L24.6220368,28.2795931 C24.6220368,28.8578049 24.1533035,29.3265383 23.5750916,29.3265383 C22.9968797,29.3265383 22.5281464,28.8578049 22.5281464,28.2795931 L22.5281464,7.07444255 C22.5281464,6.49623068 22.9968797,6.02749735 23.5750916,6.02749735 Z M27.1637536,4.30555028 C27.7419655,4.30555028 28.2106988,4.77428361 28.2106988,5.35249548 L28.2106988,28.2795931 C28.2106988,28.8578049 27.7419655,29.3265383 27.1637536,29.3265383 C26.5855418,29.3265383 26.1168084,28.8578049 26.1168084,28.2795931 L26.1168084,5.35249548 C26.1168084,4.77428361 26.5855418,4.30555028 27.1637536,4.30555028 Z M30.7524157,3.75206729 C31.3306275,3.75206729 31.7993609,4.22080062 31.7993609,4.79901249 L31.7993609,27.304366 C31.7993609,27.8825778 31.3306275,28.3513112 30.7524157,28.3513112 C30.1742038,28.3513112 29.7054705,27.8825778 29.7054705,27.304366 L29.7054705,4.79901249 C29.7054705,4.22080062 30.1742038,3.75206729 30.7524157,3.75206729 Z M19.9864296,9.50979477 C20.5646415,9.50979477 21.0333748,9.97852811 21.0333748,10.55674 L21.0333748,27.1601123 C21.0333748,27.7383241 20.5646415,28.2070575 19.9864296,28.2070575 C19.4082177,28.2070575 18.9394844,27.7383241 18.9394844,27.1601123 L18.9394844,10.55674 C18.9394844,9.97852811 19.4082177,9.50979477 19.9864296,9.50979477 Z M16.3977676,12.3682183 C16.9759794,12.3682183 17.4447128,12.8369517 17.4447128,13.4151635 L17.4447128,25.8963252 C17.4447128,26.474537 16.9759794,26.9432703 16.3977676,26.9432703 C15.8195557,26.9432703 15.3508224,26.474537 15.3508224,25.8963252 L15.3508224,13.4151635 C15.3508224,12.8369517 15.8195557,12.3682183 16.3977676,12.3682183 Z M3.16940052,22.5526514 C3.63118105,22.900628 3.72343737,23.5570659 3.37546078,24.0188464 L1.88313261,25.9992328 C1.53515602,26.4610133 0.878718175,26.5532696 0.416937646,26.205293 C-0.044842883,25.8573164 -0.137099205,25.2008786 0.210877382,24.7390981 L1.70320556,22.7587117 C2.05118214,22.2969312 2.70761999,22.2046748 3.16940052,22.5526514 Z M45.1070637,5.75102903 C45.6852756,5.75102903 46.1540089,6.21976236 46.1540089,6.79797423 L46.1540089,23.9311883 C46.1540089,24.4708528 45.7456901,24.9151492 45.22114,24.9719902 L45.1070637,24.9781335 L45.1070637,24.9781335 C44.5288519,24.9781335 44.0601186,24.5094002 44.0601186,23.9311883 L44.0601186,6.79797423 C44.0601186,6.21976236 44.5288519,5.75102903 45.1070637,5.75102903 Z M48.6957258,6.02749735 C49.2739376,6.02749735 49.742671,6.49623068 49.742671,7.07444255 L49.742671,22.8932289 C49.742671,23.4714408 49.2739376,23.9401741 48.6957258,23.9401741 C48.1175139,23.9401741 47.6487806,23.4714408 47.6487806,22.8932289 L47.6487806,7.07444255 C47.6487806,6.49623068 48.1175139,6.02749735 48.6957258,6.02749735 Z M52.2843878,7.46912834 C52.8625997,7.46912834 53.331333,7.93786167 53.331333,8.51607354 L53.331333,18.4844888 C53.331333,19.0627007 52.8625997,19.531434 52.2843878,19.531434 C51.7061759,19.531434 51.2374426,19.0627007 51.2374426,18.4844888 L51.2374426,8.51607354 C51.2374426,7.93786167 51.7061759,7.46912834 52.2843878,7.46912834 Z" id="Combined-Shape-Copy-4"></path>
            </g>
        </g>
    </g>
</svg>
